<svg viewBox="0 0 200 200" xmlns="http://www.w3.org/2000/svg">
  <circle cx="100" cy="100" r="10" fill="aquamarine"/>
  
  <circle cx="100" cy="100" r="80" stroke="lightgrey" stroke-width="10" fill="transparent"/>
  <circle cx="100" cy="100" r="40" stroke="lightgrey" stroke-width="10" fill="transparent"/>

  <path d="
    M 119.84 22.50
    A 80 80 0 0 1 177.04 121.57

    M 157.20 155.93
    A 80 80 0 0 1 42.80 155.93

    M 22.96 121.57
    A 80 80 0 0 1 80.16 22.50
  " stroke="aquamarine" stroke-width="20" fill="none" stroke-linecap="round"/>

  <path d="
    M 79.37 65.73
    A 40 40 0 0 1 120.63 65.73

    M 139.99 99.27
    A 40 40 0 0 1 119.36 135.00

    M 80.64 135.00
    A 40 40 0 0 1 60.01 99.27
  " stroke="aquamarine" stroke-width="20" fill="none" stroke-linecap="round"/>
</svg>
